<?xml version="1.0" standalone="no"?>
<!DOCTYPE svg PUBLIC "-//W3C//DTD SVG 20010904//EN"
 "http://www.w3.org/TR/2001/REC-SVG-20010904/DTD/svg10.dtd">
<svg version="1.0" xmlns="http://www.w3.org/2000/svg"
 width="1991.000000pt" height="1991.000000pt" viewBox="0 0 1991.000000 1991.000000"
 preserveAspectRatio="xMidYMid meet">
<metadata>
Created by potrace 1.11, written by Peter Selinger 2001-2013
</metadata>
<g transform="translate(0.000000,1991.000000) scale(0.100000,-0.100000)"
fill="#000000" stroke="none">
<path d="M9420 19869 c-2835 -151 -5469 -1503 -7249 -3722 l-102 -127 1172
-3063 c644 -1684 1466 -3832 1826 -4774 l655 -1712 -113 -163 -114 -163 -5
-497 -5 -498 -753 1968 c-414 1082 -1289 3370 -1945 5085 -656 1715 -1197
3119 -1203 3119 -11 1 -155 -230 -296 -476 -364 -636 -690 -1404 -892 -2103
l-47 -162 2093 -5472 2093 -5472 83 -54 c500 -323 1173 -661 1787 -896 296
-113 876 -299 890 -285 5 5 -27 93 -130 358 -19 47 -221 575 -450 1175 -229
600 -520 1359 -646 1688 -126 330 -229 601 -229 603 0 2 166 4 369 4 l369 0
15 -38 c9 -21 261 -682 562 -1468 620 -1621 668 -1746 700 -1829 24 -62 153
-403 221 -583 22 -56 45 -104 54 -107 31 -9 321 -55 500 -79 721 -97 1505
-113 2245 -45 1845 168 3588 840 5070 1954 726 546 1344 1157 1923 1901 l32
42 -49 128 c-27 71 -887 2318 -1910 4992 l-1861 4864 68 96 67 97 5 685 5 684
2074 -5422 c1141 -2982 2078 -5422 2082 -5422 4 0 57 82 117 183 422 704 738
1411 982 2199 l49 158 -2126 5557 c-1519 3972 -2132 5564 -2148 5579 -13 12
-99 66 -192 121 -706 420 -1480 761 -2236 986 -101 30 -118 33 -114 19 2 -9
297 -783 656 -1720 358 -936 651 -1704 651 -1707 0 -3 -166 -5 -369 -5 l-369
0 -36 93 c-19 50 -332 868 -695 1816 -362 948 -663 1727 -668 1732 -10 10
-365 71 -603 103 -234 32 -568 62 -820 76 -224 11 -812 11 -1040 -1z m4140
-4993 l0 -503 -1157 -1673 c-1239 -1789 -1283 -1854 -1412 -2042 -46 -68 -96
-139 -111 -158 -15 -19 -61 -84 -102 -145 -41 -60 -729 -1054 -1527 -2209
-799 -1154 -1455 -2105 -1458 -2112 -4 -12 457 -14 2996 -14 l3001 0 0 -560 0
-560 -3815 0 -3815 0 0 518 0 517 1311 1895 c721 1042 1330 1924 1355 1960 24
36 74 109 111 163 38 54 106 153 152 220 46 67 698 1009 1447 2094 750 1084
1364 1974 1364 1977 0 3 -1271 6 -2825 6 l-2825 0 0 565 0 565 3655 0 3655 0
0 -504z"/>
<path d="M15992 17845 c3 -5 844 -2203 1869 -4882 1024 -2680 1866 -4873 1869
-4873 16 0 98 542 129 851 36 357 42 465 48 869 11 770 -49 1419 -198 2148
-463 2262 -1732 4323 -3548 5760 -179 141 -176 139 -169 127z"/>
<path d="M141 11649 c-43 -242 -94 -666 -121 -1009 -18 -219 -24 -898 -11
-1150 49 -963 217 -1841 521 -2734 566 -1661 1588 -3165 2930 -4316 166 -142
340 -283 344 -279 1 2 -183 488 -409 1079 -412 1074 -3178 8302 -3220 8414
l-22 59 -12 -64z"/>
</g>
</svg>
