<?xml version="1.0" encoding="UTF-8" standalone="no"?><svg version="1.1" width="360" height="360" xml:space="preserve" viewBox="0 0 360 360" xmlns="http://www.w3.org/2000/svg" xmlns:svg="http://www.w3.org/2000/svg"><defs><linearGradient id="a" gradientUnits="userSpaceOnUse" x1="180" y1="358.60471" x2="180" y2="7.7586002" gradientTransform="scale(1 1.0000233)"><stop offset="0" stop-color="#fa233b"/><stop offset="1" stop-color="#fb5c74"/></linearGradient></defs><path d="M360 112.61262c0-4.3001 0-8.6002-.02-12.900297-.02-3.620084-.06-7.240168-.16-10.860253-.21-7.890184-.68-15.840369-2.08-23.640551-1.42-7.920184-3.75-15.290356-7.41-22.490524-3.6-7.070164-8.3-13.530315-13.91-19.140446-5.61-5.61013-12.08-10.31024-19.15-13.9103237-7.19-3.6600853-14.56-5.9801393-22.47-7.4101726C287 .86002004 279.04.39000909 271.15.18000419c-3.62-.10000233-7.24-.14000326-10.86-.16000372C255.99 0 251.69 0 247.39 0H112.61c-4.3 0-8.6 0-12.9.02000047-3.62.02000046-7.24.06000139-10.86.16000372C80.96.40000932 73 .86002004 65.2 2.2700529 57.28 3.690086 49.92 6.0201403 42.73 9.6802255 35.66 13.280309 29.19 17.980419 23.58 23.59055c-5.61 5.61013-10.31 12.070281-13.91 19.140446-3.66 7.200167-5.99 14.570339-7.41 22.490524C.86 73.021701.39 80.981887.18 88.86207c-.1 3.620085-.14 7.240169-.16 10.860253C0 104.01242 0 108.31252 0 112.61262v134.77314c0 4.3001 0 8.6002.02 12.9003.02 3.62009.06 7.24017.16 10.86026.21 7.89018.68 15.84037 2.08 23.64055 1.42 7.92018 3.75 15.29035 7.41 22.49052 3.6 7.07017 8.3 13.53032 13.91 19.14045 5.61 5.61013 12.08 10.31024 19.15 13.91032 7.19 3.66009 14.56 5.98014 22.47 7.41018 7.8 1.40003 15.76 1.87004 23.65 2.08004 3.62.10001 7.24.14001 10.86.16001 4.3.03 8.6.02 12.9.02h134.77c4.3 0 8.6 0 12.9-.02 3.62-.02 7.24-.06 10.86-.16001 7.89-.21 15.85-.68001 23.65-2.08004 7.92-1.42004 15.28-3.75009 22.47-7.41018 7.07-3.60008 13.54-8.30019 19.15-13.91032 5.61-5.61013 10.31-12.07028 13.91-19.14045 3.66-7.20017 5.99-14.57034 7.41-22.49052 1.4-7.80018 1.87-15.76037 2.08-23.64055.1-3.62009.14-7.24017.16-10.86026.03-4.3001.02-8.6002.02-12.9003V112.61262Z" fill="url(#a)"/><path d="M257.8332 54.59c-.87.08-8.6 1.403994-9.53 1.593994L141.335 77.795l-.04.01c-2.79.59-4.98 1.58-6.67 3-2.04 1.71-3.17 4.23-3.6 7.05-.09.6-.24 1.82-.24 3.62v133.88c0 3.13-.25 6.17-2.37 8.76s-4.7718 3.4-7.8418 4.02l-6.99 1.41c-8.84 1.78-14.589996 3.01-19.799992 5.03-4.98 1.93-8.633208 4.355-11.603208 7.475-5.89 6.17-8.27 14.525-7.45 22.365.7 6.69 3.7 13.09 8.87 17.82 3.49 3.2 7.773208 5.605 12.913204 6.635 5.329996 1.07 11.009996.7 19.309996-.98 4.42-.89 8.5368-2.255 12.4768-4.585 3.9-2.3 7.2632-5.37 9.8732-9.11 2.62-3.75 4.31-7.92 5.24-12.35.96-4.57 1.19-8.7 1.19-13.26V142.35399c0-6.22 1.76-7.88399 6.78-9.10399 0 0 88.94-17.94 93.09-18.75 5.79-1.11 8.52.56399 8.52 6.63399V200.505c0 3.14-.03 6.32-2.17 8.92-2.12 2.59-4.73896 3.36826-7.81 3.99l-6.99237 1.41396c-8.843 1.785-14.59495 2.9984-19.80672 5.02408-4.98169 1.93542-8.71295 4.43819-11.68396 7.56696-5.892 6.18733-8.41926 14.6291-7.61658 22.3035.69959 6.68608 3.91771 13.08233 9.08468 17.80957 3.48796 3.19812 7.84541 5.53754 12.9824 6.57693 5.32688 1.06938 11.00355.66931 19.2987-.99971 4.41741-.88948 8.50237-2.17921 12.44006-4.50785 3.89772-2.29865 7.23576-5.36686 9.84424-9.10467 2.61846-3.7478 4.28058-7.91536 5.21004-12.34277.95944-4.56733 1.05262-8.7 1.05262-13.26V64.95c.00843-2.59687-.35165-4.579691-1.04955-6.12896-.44511-.988121-1.02834-1.808231-1.74307-2.44604-1.50466-1.342741-3.5921-2.010249-6.20049-1.785Z" fill="#fff"/></svg>