<?xml version="1.0" encoding="UTF-8" standalone="no"?>
<svg
   xmlns:dc="http://purl.org/dc/elements/1.1/"
   xmlns:cc="http://creativecommons.org/ns#"
   xmlns:rdf="http://www.w3.org/1999/02/22-rdf-syntax-ns#"
   xmlns:svg="http://www.w3.org/2000/svg"
   xmlns="http://www.w3.org/2000/svg"
   xmlns:xlink="http://www.w3.org/1999/xlink"
   xmlns:sodipodi="http://sodipodi.sourceforge.net/DTD/sodipodi-0.dtd"
   xmlns:inkscape="http://www.inkscape.org/namespaces/inkscape"
   width="264.58334mm"
   height="264.58334mm"
   viewBox="0 0 264.58334 264.58334"
   version="1.1"
   id="svg8"
   inkscape:version="1.0.1 (3bc2e813f5, 2020-09-07)"
   sodipodi:docname="Instagram_(2022).svg">
  <defs
     id="defs2">
    <linearGradient
       inkscape:collect="always"
       id="linearGradient2531">
      <stop
         style="stop-color:#ff005f;stop-opacity:1"
         offset="0"
         id="stop2527" />
      <stop
         style="stop-color:#fc01d8;stop-opacity:1"
         offset="1"
         id="stop2529" />
    </linearGradient>
    <linearGradient
       id="linearGradient2513">
      <stop
         offset="0"
         stop-color="#3771c8"
         id="stop2505"
         style="stop-color:#780cff;stop-opacity:1" />
      <stop
         stop-color="#3771c8"
         offset="1"
         id="stop2507"
         style="stop-color:#820bff;stop-opacity:0" />
    </linearGradient>
    <linearGradient
       inkscape:collect="always"
       id="linearGradient2485">
      <stop
         style="stop-color:#ffcc00;stop-opacity:1"
         offset="0"
         id="stop2481" />
      <stop
         style="stop-color:#ffcc00;stop-opacity:0"
         offset="1"
         id="stop2483" />
    </linearGradient>
    <linearGradient
       id="a">
      <stop
         offset="0"
         stop-color="#fd5"
         id="stop14"
         style="stop-color:#ffcc00;stop-opacity:1" />
      <stop
         offset="0.12416067"
         stop-color="#fd5"
         id="stop16"
         style="stop-color:#ffcc00;stop-opacity:1" />
      <stop
         offset="0.56719624"
         stop-color="#fd5"
         id="stop2487"
         style="stop-color:#fe4a05;stop-opacity:1" />
      <stop
         offset="0.69420281"
         stop-color="#ff543e"
         id="stop18"
         style="stop-color:#ff0f3f;stop-opacity:1" />
      <stop
         offset="1"
         stop-color="#ff543e"
         id="stop2515"
         style="stop-color:#fe0657;stop-opacity:0" />
    </linearGradient>
    <radialGradient
       id="c"
       cx="158.429"
       cy="578.08801"
       r="52.351524"
       xlink:href="#a"
       gradientUnits="userSpaceOnUse"
       gradientTransform="matrix(0,-4.0341789,4.2801844,0,-2332.2273,942.2356)"
       fx="158.429"
       fy="578.08801" />
    <radialGradient
       inkscape:collect="always"
       xlink:href="#linearGradient2485"
       id="radialGradient2479"
       gradientUnits="userSpaceOnUse"
       gradientTransform="matrix(0.67441347,-1.1620263,1.5128335,0.87801401,-814.3657,-47.835421)"
       cx="172.61488"
       cy="600.69244"
       fx="172.61488"
       fy="600.69244"
       r="65" />
    <radialGradient
       inkscape:collect="always"
       xlink:href="#linearGradient2513"
       id="radialGradient2503"
       cx="144.01199"
       cy="51.3367"
       fx="144.01199"
       fy="51.3367"
       r="67.080994"
       gradientTransform="matrix(-2.3989082,0.67548907,-0.23007853,-0.81731518,464.99573,-26.403484)"
       gradientUnits="userSpaceOnUse" />
    <radialGradient
       inkscape:collect="always"
       xlink:href="#linearGradient2531"
       id="radialGradient2525"
       gradientUnits="userSpaceOnUse"
       gradientTransform="matrix(-3.1079707,0.87652434,-0.63149336,-2.2391423,1345.6503,1374.1983)"
       cx="199.78836"
       cy="628.43787"
       fx="199.78836"
       fy="628.43787"
       r="52.351524" />
  </defs>
  <sodipodi:namedview
     id="base"
     pagecolor="#ffffff"
     bordercolor="#666666"
     borderopacity="1.0"
     inkscape:pageopacity="0.0"
     inkscape:pageshadow="2"
     inkscape:zoom="0.51499999"
     inkscape:cx="500"
     inkscape:cy="500.00001"
     inkscape:document-units="mm"
     inkscape:current-layer="layer1"
     inkscape:document-rotation="0"
     showgrid="false"
     inkscape:window-width="1366"
     inkscape:window-height="705"
     inkscape:window-x="-8"
     inkscape:window-y="-8"
     inkscape:window-maximized="1" />
  <metadata
     id="metadata5">
    <rdf:RDF>
      <cc:Work
         rdf:about="">
        <dc:format>image/svg+xml</dc:format>
        <dc:type
           rdf:resource="http://purl.org/dc/dcmitype/StillImage" />
        <dc:title></dc:title>
      </cc:Work>
    </rdf:RDF>
  </metadata>
  <g
     inkscape:label="Layer 1"
     inkscape:groupmode="layer"
     id="layer1"
     transform="translate(-71.815468,-18.142853)">
    <g
       id="g986">
      <path
         d="m 204.15032,18.142853 c -55.23055,0 -71.38338,0.05699 -74.52318,0.317526 -11.33425,0.942403 -18.38712,2.727476 -26.07081,6.554082 -5.921479,2.941193 -10.591515,6.350535 -15.200504,11.129723 -8.393854,8.715706 -13.481038,19.438344 -15.322599,32.184197 -0.895345,6.187704 -1.155808,7.449668 -1.208715,39.055809 -0.02035,10.53538 0,24.40072 0,42.99843 0,55.20082 0.06105,71.34177 0.32558,74.47633 0.915693,11.03203 2.645335,17.97284 6.308108,25.56499 6.999966,14.53296 20.369086,25.44286 36.11901,29.51371 5.45346,1.40445 11.47669,2.17791 19.20921,2.54429 3.27614,0.14248 36.66842,0.24425 70.08105,0.24425 33.41263,0 66.82526,-0.0407 70.02001,-0.20354 8.95344,-0.42134 14.15255,-1.11949 19.90106,-2.60535 15.85167,-4.09121 28.97661,-14.83828 36.11901,-29.57478 3.59156,-7.40896 5.41277,-14.61438 6.23689,-25.07038 0.17907,-2.27967 0.25436,-38.62632 0.25436,-74.92412 0,-36.30391 -0.0814,-72.583393 -0.26047,-74.863071 -0.83429,-10.624939 -2.6555,-17.769292 -6.36304,-25.320733 -3.04214,-6.181596 -6.42003,-10.797949 -11.32407,-15.518109 -8.752,-8.361541 -19.45543,-13.450112 -32.21002,-15.290139 -6.17991,-0.893554 -7.41101,-1.158159 -39.03295,-1.213115 z"
         id="path2517"
         style="fill:url(#radialGradient2525);fill-opacity:1;stroke-width:0.264619"
         inkscape:connector-curvature="0" />
      <path
         d="m 204.15032,18.142853 c -55.23055,0 -71.38338,0.05699 -74.52318,0.317526 -11.33425,0.942403 -18.38712,2.727476 -26.07081,6.554082 -5.921479,2.941193 -10.591515,6.350535 -15.200504,11.129723 -8.393854,8.715706 -13.481038,19.438344 -15.322599,32.184197 -0.895345,6.187704 -1.155808,7.449668 -1.208715,39.055809 -0.02035,10.53538 0,24.40072 0,42.99843 0,55.20082 0.06105,71.34177 0.32558,74.47633 0.915693,11.03203 2.645335,17.97284 6.308108,25.56499 6.999966,14.53296 20.369086,25.44286 36.11901,29.51371 5.45346,1.40445 11.47669,2.17791 19.20921,2.54429 3.27614,0.14248 36.66842,0.24425 70.08105,0.24425 33.41263,0 66.82526,-0.0407 70.02001,-0.20354 8.95344,-0.42134 14.15255,-1.11949 19.90106,-2.60535 15.85167,-4.09121 28.97661,-14.83828 36.11901,-29.57478 3.59156,-7.40896 5.41277,-14.61438 6.23689,-25.07038 0.17907,-2.27967 0.25436,-38.62632 0.25436,-74.92412 0,-36.30391 -0.0814,-72.583393 -0.26047,-74.863071 -0.83429,-10.624939 -2.6555,-17.769292 -6.36304,-25.320733 -3.04214,-6.181596 -6.42003,-10.797949 -11.32407,-15.518109 -8.752,-8.361541 -19.45543,-13.450112 -32.21002,-15.290139 -6.17991,-0.893554 -7.41101,-1.158159 -39.03295,-1.213115 z"
         id="path24"
         style="fill:url(#c);stroke-width:0.264619"
         inkscape:connector-curvature="0" />
      <path
         d="m 204.15032,18.142853 c -55.23055,0 -71.38338,0.05699 -74.52318,0.317526 -11.33425,0.942403 -18.38712,2.727476 -26.07081,6.554082 -5.921479,2.941193 -10.591515,6.350535 -15.200504,11.129723 -8.393854,8.715706 -13.481038,19.438344 -15.322599,32.184197 -0.895345,6.187704 -1.155808,7.449668 -1.208715,39.055809 -0.02035,10.53538 0,24.40072 0,42.99843 0,55.20082 0.06105,71.34177 0.32558,74.47633 0.915693,11.03203 2.645335,17.97284 6.308108,25.56499 6.999966,14.53296 20.369086,25.44286 36.11901,29.51371 5.45346,1.40445 11.47669,2.17791 19.20921,2.54429 3.27614,0.14248 36.66842,0.24425 70.08105,0.24425 33.41263,0 66.82526,-0.0407 70.02001,-0.20354 8.95344,-0.42134 14.15255,-1.11949 19.90106,-2.60535 15.85167,-4.09121 28.97661,-14.83828 36.11901,-29.57478 3.59156,-7.40896 5.41277,-14.61438 6.23689,-25.07038 0.17907,-2.27967 0.25436,-38.62632 0.25436,-74.92412 0,-36.30391 -0.0814,-72.583393 -0.26047,-74.863071 -0.83429,-10.624939 -2.6555,-17.769292 -6.36304,-25.320733 -3.04214,-6.181596 -6.42003,-10.797949 -11.32407,-15.518109 -8.752,-8.361541 -19.45543,-13.450112 -32.21002,-15.290139 -6.17991,-0.893554 -7.41101,-1.158159 -39.03295,-1.213115 z"
         id="path2471"
         style="fill:url(#radialGradient2479);fill-opacity:1;stroke-width:0.264619"
         inkscape:connector-curvature="0" />
      <path
         d="m 204.15032,18.142853 c -55.23055,0 -71.38338,0.05699 -74.52318,0.317526 -11.33425,0.942403 -18.38712,2.727476 -26.07081,6.554082 -5.921479,2.941193 -10.591515,6.350535 -15.200504,11.129723 -8.393854,8.715706 -13.481038,19.438344 -15.322599,32.184197 -0.895345,6.187704 -1.155808,7.449668 -1.208715,39.055809 -0.02035,10.53538 0,24.40072 0,42.99843 0,55.20082 0.06105,71.34177 0.32558,74.47633 0.915693,11.03203 2.645335,17.97284 6.308108,25.56499 6.999966,14.53296 20.369086,25.44286 36.11901,29.51371 5.45346,1.40445 11.47669,2.17791 19.20921,2.54429 3.27614,0.14248 36.66842,0.24425 70.08105,0.24425 33.41263,0 66.82526,-0.0407 70.02001,-0.20354 8.95344,-0.42134 14.15255,-1.11949 19.90106,-2.60535 15.85167,-4.09121 28.97661,-14.83828 36.11901,-29.57478 3.59156,-7.40896 5.41277,-14.61438 6.23689,-25.07038 0.17907,-2.27967 0.25436,-38.62632 0.25436,-74.92412 0,-36.30391 -0.0814,-72.583393 -0.26047,-74.863071 -0.83429,-10.624939 -2.6555,-17.769292 -6.36304,-25.320733 -3.04214,-6.181596 -6.42003,-10.797949 -11.32407,-15.518109 -8.752,-8.361541 -19.45543,-13.450112 -32.21002,-15.290139 -6.17991,-0.893554 -7.41101,-1.158159 -39.03295,-1.213115 z"
         id="path2501"
         style="fill:url(#radialGradient2503);fill-opacity:1;stroke-width:0.264619"
         inkscape:connector-curvature="0" />
      <path
         d="m 204.16071,52.115853 c -26.71676,0 -30.06967,0.116733 -40.56291,0.593903 -10.47273,0.479218 -17.62124,2.135999 -23.87619,4.566903 -6.47015,2.510768 -11.9586,5.869386 -17.42655,11.335331 -5.47206,5.463898 -8.83317,10.948278 -11.35401,17.411568 -2.43885,6.252353 -4.09891,13.397611 -4.57029,23.858462 -0.46933,10.48547 -0.59229,13.83792 -0.59229,40.53486 0,26.6969 0.11887,30.03709 0.59434,40.5225 0.48162,10.46498 2.13964,17.60819 4.57029,23.8585 2.51469,6.46533 5.8758,11.9497 11.34581,17.41361 5.4659,5.46797 10.95436,8.83482 17.4204,11.34555 6.25905,2.43091 13.40961,4.08769 23.8803,4.56694 10.49323,0.47714 13.84409,0.59388 40.55878,0.59388 26.7188,0 30.06147,-0.11674 40.55469,-0.59388 10.47276,-0.47925 17.62944,-2.13603 23.88849,-4.56694 6.4681,-2.51073 11.94837,-5.87758 17.41428,-11.34555 5.47205,-5.46391 8.83317,-10.94828 11.354,-17.41157 2.41836,-6.25235 4.07842,-13.3976 4.57029,-23.85848 0.47137,-10.48543 0.59433,-13.82766 0.59433,-40.52456 0,-26.69694 -0.12296,-30.04734 -0.59433,-40.53282 -0.49187,-10.464941 -2.15193,-17.608149 -4.57029,-23.858455 -2.52083,-6.465337 -5.88195,-11.949717 -11.354,-17.413615 -5.47208,-5.467992 -10.94414,-8.826611 -17.42042,-11.335331 -6.27135,-2.430904 -13.42395,-4.087685 -23.89667,-4.566903 -10.49325,-0.47717 -13.83387,-0.593903 -40.55881,-0.593903 z m -8.82498,17.714662 c 2.6192,-0.0041 5.54174,0 8.82498,0 26.26586,0 29.37898,0.09421 39.75129,0.565232 9.59148,0.438259 14.79708,2.039745 18.26476,3.385241 4.59082,1.781706 7.86379,3.911558 11.30483,7.352095 3.44309,3.440534 5.57452,6.717238 7.36165,11.304618 1.34651,3.461013 2.95122,8.662769 3.38775,18.247119 0.47138,10.36255 0.57388,13.47545 0.57388,39.7095 0,26.23408 -0.1025,29.34698 -0.57388,39.70953 -0.43858,9.58432 -2.04124,14.7861 -3.38775,18.24712 -1.78301,4.58739 -3.91856,7.85385 -7.36165,11.29232 -3.44308,3.44054 -6.71197,5.57039 -11.30483,7.3521 -3.46358,1.35166 -8.67328,2.94904 -18.26476,3.38728 -10.37026,0.47103 -13.48543,0.57342 -39.75129,0.57342 -26.26793,0 -29.38106,-0.10239 -39.75132,-0.57342 -9.59147,-0.44233 -14.79709,-2.04384 -18.26683,-3.38933 -4.59079,-1.7817 -7.86992,-3.91155 -11.31301,-7.35209 -3.44309,-3.44053 -5.57453,-6.70906 -7.36166,-11.29846 -1.34649,-3.46102 -2.95122,-8.6628 -3.38776,-18.24716 -0.47137,-10.36255 -0.56565,-13.47539 -0.56565,-39.72588 0,-26.25044 0.0943,-29.34695 0.56565,-39.7095 0.43859,-9.58435 2.04127,-14.786113 3.38776,-18.251221 1.78303,-4.587381 3.91857,-7.864081 7.36166,-11.304618 3.44309,-3.440533 6.72222,-5.570389 11.31301,-7.356192 3.46769,-1.351636 8.67536,-2.949031 18.26683,-3.389336 9.07501,-0.409585 12.59187,-0.532463 30.92634,-0.552941 z m 61.33621,16.322063 c -6.5173,0 -11.80488,5.277535 -11.80488,11.792022 0,6.51245 5.28758,11.79612 11.80488,11.79612 6.51727,0 11.80488,-5.28367 11.80488,-11.79612 0,-6.51244 -5.28761,-11.796117 -11.80488,-11.796117 z m -52.51123,13.782618 c -27.8993,0 -50.51918,22.603094 -50.51918,50.481684 0,27.87855 22.61988,50.47139 50.51918,50.47139 27.89928,0 50.51094,-22.59284 50.51094,-50.47139 0,-27.87859 -22.61371,-50.481684 -50.51303,-50.481684 z m 0,17.714654 c 18.109,0 32.79132,14.66941 32.79132,32.76703 0,18.09554 -14.68232,32.76699 -32.79132,32.76699 -18.11108,0 -32.79136,-14.67145 -32.79136,-32.76699 0,-18.09762 14.68028,-32.76703 32.79136,-32.76703 z"
         id="path28"
         inkscape:connector-curvature="0"
         style="fill:#ffffff;stroke-width:0.266378" />
    </g>
  </g>
</svg>
