<?xml version="1.0" encoding="UTF-8" standalone="no"?><svg version="1.1" viewBox="0 0 131.5 131.5" xml:space="preserve" xmlns:xlink="http://www.w3.org/1999/xlink" xmlns="http://www.w3.org/2000/svg" xmlns:svg="http://www.w3.org/2000/svg"><defs><linearGradient id="e"><stop offset="0" stop-color="#fff" stop-opacity=".68000001"/><stop offset=".19241104" stop-color="#fff" stop-opacity=".76470588"/><stop offset=".5" stop-color="#fff" stop-opacity=".88999999"/><stop offset=".69455254" stop-color="#fff" stop-opacity=".92000002"/><stop offset=".75" stop-color="#fff" stop-opacity=".90980392"/><stop offset="1" stop-color="#fff" stop-opacity=".93000001"/></linearGradient><linearGradient id="c"><stop offset="0" stop-color="#fff" stop-opacity=".92000002"/><stop offset=".25" stop-color="#fff" stop-opacity=".92000002"/><stop offset=".5" stop-color="#fff" stop-opacity=".89999998"/><stop offset=".65793979" stop-color="#fff" stop-opacity=".86000001"/><stop offset=".81587952" stop-color="#fff" stop-opacity=".8"/><stop offset="1" stop-color="#fff" stop-opacity=".72000003"/></linearGradient><linearGradient id="f"><stop offset="0" stop-color="#fff" stop-opacity=".86920983"/><stop offset=".18541567" stop-color="#fff" stop-opacity=".86666667"/><stop offset=".37083134" stop-color="#fff" stop-opacity=".89999998"/><stop offset=".66112721" stop-color="#fff" stop-opacity=".94"/><stop offset=".84743154" stop-color="#fff" stop-opacity=".94999999"/><stop offset="1" stop-color="#fff" stop-opacity=".95999998"/></linearGradient><linearGradient id="d"><stop offset="0" stop-color="#fff" stop-opacity=".87"/><stop offset=".1875" stop-color="#fff" stop-opacity=".8627451"/><stop offset=".4375" stop-color="#fff" stop-opacity=".85490196"/><stop offset=".75" stop-color="#fff" stop-opacity=".86000001"/><stop offset=".875" stop-color="#fff" stop-opacity=".85490196"/><stop offset="1" stop-color="#fff" stop-opacity=".85000002"/></linearGradient><linearGradient id="b"><stop offset="0" stop-color="#fff" stop-opacity=".86376023"/><stop offset=".3149685" stop-color="#fff" stop-opacity=".91764706"/><stop offset=".36130235" stop-color="#fff" stop-opacity=".90980392"/><stop offset=".5" stop-color="#fff" stop-opacity=".88999999"/><stop offset=".61557591" stop-color="#fff" stop-opacity=".86000001"/><stop offset=".74944603" stop-color="#fff" stop-opacity=".79000002"/><stop offset="1" stop-color="#fff" stop-opacity=".67000002"/></linearGradient><linearGradient id="a"><stop offset="0" stop-color="#eb4cbd"/><stop offset="1" stop-color="#cb44f6"/></linearGradient><linearGradient xlink:href="#a" id="g" x1="65.752617" y1="-.00000151" x2="65.752617" y2="131.5" gradientUnits="userSpaceOnUse"/><linearGradient xlink:href="#b" id="h" gradientUnits="userSpaceOnUse" gradientTransform="matrix(1 0 0 1.0004526 .06846188 -.02958744)" x1="47.091263" y1="55.685673" x2="78.382133" y2="30.81148"/><linearGradient xlink:href="#c" id="i" gradientUnits="userSpaceOnUse" gradientTransform="matrix(1 0 0 1.0004526 .06846188 -.02958744)" x1="62.019768" y1="86.408974" x2="96.470612" y2="86.408974"/><linearGradient xlink:href="#d" id="j" gradientUnits="userSpaceOnUse" gradientTransform="matrix(1 0 0 1.0004526 .06846188 -.02958744)" x1="14.879408" y1="51.635036" x2="51.547249" y2="60.958824"/><linearGradient xlink:href="#e" id="k" gradientUnits="userSpaceOnUse" gradientTransform="matrix(1 0 0 1.0004526 .06846188 -.02958744)" x1="44.449337" y1="66.537857" x2="73.750534" y2="94.454185"/><linearGradient xlink:href="#f" id="l" gradientUnits="userSpaceOnUse" gradientTransform="matrix(1 0 0 1.0004526 .06846188 -.02958744)" x1="89.097145" y1="48.476334" x2="89.889946" y2="73.932701"/></defs><path d="M40.344156-.00000151c-1.306481 0-2.612963 0-3.919445.01045181-1.322159.0104519-2.644319.0209037-3.966478.0574852-2.884712.0783889-5.790328.2456186-8.638458.7577594-2.889937.5173668-5.58129 1.3691929-8.209931 2.7070302-2.581608 1.3169336-4.943727 3.0310377-6.9922904 5.0796011-2.0537893 2.0485638-3.7678933 4.4106828-5.084827 6.9922908-1.3378373 2.628641-2.1844374 5.319993-2.70703014 8.215157-.51214084 2.84813-.67937051 5.753745-.75775941 8.638457-.03658149 1.32216-.05225927 2.644319-.0574852 3.966479C.00522592 37.684158 0 38.943606 0 40.203055v51.093888c0 1.259449 0 2.518897.01045185 3.778345.01045185 1.32216.02090371 2.644319.0574852 3.966482.0783889 2.87948.24561857 5.7851.75775941 8.63845.51736674 2.89517 1.36919284 5.58652 2.70703014 8.21516 1.3169337 2.58161 3.0310377 4.94373 5.0796011 6.99229 2.0485633 2.04857 4.4106823 3.7679 6.9922903 5.0796 2.628641 1.33784 5.319994 2.18444 8.209931 2.70703 2.848131.51214 5.758972.6846 8.638458.75776 1.322159.03658 2.644319.05226 3.966478.05749 1.306482.01045 2.612964.01045 3.919446.01045h50.82214c1.306481 0 2.612963 0 3.919445-.01045 1.322159-.01045 2.644319-.02091 3.966478-.05749 2.884716-.07839 5.790326-.24562 8.638456-.75776 2.88994-.51736 5.58129-1.36919 8.20993-2.70703 2.58161-1.31693 4.94373-3.03103 6.99229-5.0796 2.04857-2.04856 3.7679-4.41068 5.0796-6.99229 1.33784-2.62864 2.18444-5.31999 2.70703-8.21516.51215-2.84813.67938-5.75374.75776-8.63845.03659-1.322163.05226-2.644322.05749-3.966482.00523-1.259448.01045-2.524122.01045-3.783571V40.208281c0-1.259449 0-2.524123-.01045-3.783571-.01045-1.32216-.0209-2.644319-.05749-3.966479-.07838-2.879486-.24561-5.785101-.75776-8.638457-.51736-2.895164-1.36919-5.586516-2.70703-8.215157-1.31693-2.581608-3.03103-4.943727-5.0796-6.9922908-2.04856-2.0485634-4.41068-3.7678934-6.99229-5.0796011-2.62864-1.3378373-5.31999-2.1844374-8.20993-2.7070302-2.84813-.5121408-5.75897-.6845964-8.638456-.7577594C97.724835.031354 96.402675.0156763 95.080516.0104503c-1.306482-.01045181-2.612964-.01045181-3.919445-.01045181Z" fill="url(#g)"/><path d="m53.224609 50.228516-7.716797 24.0625 20.271485 14.751953 20.339844-14.753907-7.720703-24.05664Z" fill="#fff"/><path d="m65.779297 89.042969 12.619141-38.810547-10.205592-31.361566c-.14916-.470312-.393602-1.038304-.610917-1.346565-.362876-.514724-.769429-.7983-1.267002-.92448-.694031-.176007-1.392769.029611-1.854927.432401-.426372.371596-.76718 1.024856-.996277 1.742593L53.224609 50.228516Z" fill="url(#h)"/><path d="m53.224609 50.228516 12.554688 38.814453L92.505 108.51775c.397116.29281.94187.60865 1.298874.7303.596118.20313 1.091704.19356 1.56842.00319.381565-.15238.690517-.40733.910466-.70987.392099-.53933.427593-.99071.394716-1.49177-.026025-.39663-.132369-.79665-.276937-1.23385L86.119141 74.289062Z" fill="url(#i)"/><path d="m86.119141 74.289062-40.611329.001954-26.820068-19.410754c-.40122-.29035-.8655-.70339-1.09079-1.009681-.37618-.511444-.51829-.993685-.4817-1.515487.05103-.727829.45789-1.313216.98746-1.636854.48856-.298578 1.22796-.455757 1.98423-.455757l33.137665-.033967Z" fill="url(#j)"/><path d="M78.398438 50.232422 65.779297 89.042969 39.098386 108.51384c-.397116.29281-.902921.62407-1.259926.74572-.596117.20313-1.120383.17752-1.55692.00319-.381568-.15237-.729465-.40733-.949416-.70987-.392097-.53933-.427591-.99071-.394715-1.49178.026024-.39662.12087-.79665.265438-1.23384l10.304965-31.536244Z" fill="url(#k)"/><path d="m45.507812 74.291016 40.611329-.001954 26.820069-19.4088c.40122-.29035.8655-.70339 1.09079-1.009681.37618-.511444.51829-.993685.4817-1.515487-.05103-.727829-.45789-1.313216-.98746-1.636854-.48856-.298578-1.22796-.455757-1.98423-.455757l-33.141572-.030061Z" fill="url(#l)"/></svg>