<svg
   xmlns="http://www.w3.org/2000/svg"
   xmlns:xlink="http://www.w3.org/1999/xlink"
   version="1.1"
   id="Layer_2"
   x="0px"
   y="0px"
   viewBox="0 0 24 24"
   xml:space="preserve"><style
   type="text/css">
	.st0{fill:#FF0000;}
	.st1{fill:#FFFFFF;}
</style>
<g
   transform="matrix(1.032969,0,0,1.032969,0,-8.6593792)">
	<circle
   class="st0"
   cx="11.617"
   cy="20"
   r="11.617" />
	<path
   class="st1"
   d="m 11.617,12.895 c -3.924,0 -7.105,3.181 -7.105,7.105 0,3.924 3.181,7.105 7.105,7.105 3.924,0 7.105,-3.181 7.105,-7.105 0,-3.924 -3.181,-7.105 -7.105,-7.105 z m 0,13.265 c -3.402,0 -6.16,-2.758 -6.16,-6.16 0,-3.402 2.758,-6.16 6.16,-6.16 3.402,0 6.16,2.758 6.16,6.16 0,3.402 -2.758,6.16 -6.16,6.16 z" />
	<polygon
   class="st1"
   points="9.448,16.563 15.39,19.967 9.448,23.4 " />
</g>
</svg>
